<svg width="56" height="46" viewBox="0 0 56 46" fill="none" xmlns="http://www.w3.org/2000/svg">
<path d="M0 0.600006V45.4H56V0.600006H0ZM2.24 2.84001H53.76V31.96H41.7988L33.9588 26.36H27.3438L22.7675 21.7838L17.3163 22.8775L12.495 15.6413L2.24 25.8963V2.84001ZM42 9.56001C39.2306 9.56001 36.96 11.8306 36.96 14.6C36.96 17.3694 39.2306 19.64 42 19.64C44.7694 19.64 47.04 17.3694 47.04 14.6C47.04 11.8306 44.7694 9.56001 42 9.56001ZM42 11.8C43.5575 11.8 44.8 13.0425 44.8 14.6C44.8 16.1575 43.5575 17.4 42 17.4C40.4425 17.4 39.2 16.1575 39.2 14.6C39.2 13.0425 40.4425 11.8 42 11.8ZM12.145 19.1588L16.2838 25.3625L22.0325 24.2163L26.4163 28.6H33.2412L41.0812 34.2H53.76V43.16H2.24V29.0638L12.145 19.1588Z" fill="#959595"/>
</svg>
